# xmcd
#
# Track frame offsets:
#	150
#	17341
#	32096
#	48649
#	63386
#	79814
#	93765
#	110245
#	126808
#	144784
#	164635
#
# Disc length: 2390 seconds
# Revision: 0
# Processed by: cddbd v1.5.2PL0 Copyright (c) Steve Scherf et al.
# Submitted via: dBpowerAMP V12.0
#
DISCID=8d09540b
DTITLE=Kelley McRae - The Wayside
DYEAR=2016
DGENRE=Americana
TTITLE0=Land of the Noonday Sun
TTITLE1=Hard Night
TTITLE2=If You Need Me
TTITLE3=Reach You
TTITLE4=The Wayside
TTITLE5=Red Dirt Road
TTITLE6=A Long Time
TTITLE7=Rare Bird
TTITLE8=Tell It Again
TTITLE9=Rose
TTITLE10=All the Days That Have Come Before
EXTD=
EXTT0=
EXTT1=
EXTT2=
EXTT3=
EXTT4=
EXTT5=
EXTT6=
EXTT7=
EXTT8=
EXTT9=
EXTT10=
PLAYORDER=
